IKResults
version=1
nRows=8
nColumns=67
inDegrees=yes

Units are S.I. units (second, meters, Newtons, ...)
Angles are in degrees.

endheader
time	pelvis_tilt	pelvis_list	pelvis_rotation	pelvis_tx	pelvis_ty	pelvis_tz	hip_flexion_r	hip_adduction_r	hip_rotation_r	knee_angle_r	knee_rot_r	knee_adduc_r	ankle_angle_r	ankle_rot_r	ankle_add_r	subtalar_angle_r	mtp_angle_r	mtp_rot_r	mtp_add_r	hip_flexion_l	hip_adduction_l	hip_rotation_l	knee_angle_l	knee_rot_l	knee_adduc_l	ankle_angle_l	ankle_rot_l	ankle_add_l	subtalar_angle_l	mtp_angle_l	mtp_rot_l	mtp_add_l	lumbar_extension	lumbar_bending	lumbar_rotation	neck_flexion	neck_lateral_bending	neck_rotation	arm_flex_r	arm_add_r	arm_rot_r	elbow_flex_r	elbow_rot_r	elbow_add_r	pro_sup_r	wrist_flex_r	wrist_adduc_r	wrist_rot_r	wrist_dev_r	hand_finger_flex_r	hand_finger_adduc_r	hand_finger_rot_r	arm_flex_l	arm_add_l	arm_rot_l	elbow_flex_l	elbow_rot_l	elbow_add_l	pro_sup_l	wrist_flex_l	wrist_adduc_l	wrist_rot_l	wrist_dev_l	hand_finger_flex_l	hand_finger_adduc_l	hand_finger_rot_l
      2.43500000	     12.83528331	      8.01451020	      5.70006715	      0.62006363	      0.76216845	      0.90038955	     15.17706117	    -13.84718744	     -2.00825884	    -54.56787215	     -5.00000000	      5.00000000	     -0.26032381	     -5.00000000	      1.82118864	      1.09560363	     25.81020051	     -1.62054953	      2.00000000	    -14.31215046	     14.88649768	      6.69936567	    -10.34393685	      4.63710102	      3.26083739	      8.50856549	     -5.00000000	      5.00000000	     -4.37668735	     20.42849473	      1.73067698	     -0.12092330	    -29.60283503	     -4.93948384	     -9.44949277	      0.00000000	      0.00000000	      0.00000000	      0.00000000	      0.00000000	      0.00000000	      0.00000000	      0.00000000	      0.00000000	     -0.00042092	      0.00000000	      0.00000000	      0.00000000	      0.00000000	      0.00000000	      0.00000000	      0.00000000	      0.00000000	      0.00000000	      0.00000000	      0.00000000	      0.00000000	      0.00000000	      0.00000000	      0.00000000	      0.00000000	      0.00000000	      0.00000000	      0.00000000	      0.00000000	      0.00000000
      2.44000000	     12.72970103	      8.13655046	      5.91508944	      0.62547985	      0.76164761	      0.90019425	     15.74709474	    -13.97524839	     -1.88151444	    -53.17602581	     -5.00000000	      5.00000000	     -0.18024352	     -5.00000000	      1.82201848	      1.00114310	     25.81452455	     -1.61875503	      2.00000000	    -14.75880443	     14.92140905	      6.80368202	    -10.24399183	      4.58549465	      3.30021383	      8.68734806	     -5.00000000	      5.00000000	     -4.35984932	     20.40707029	      1.72284372	     -0.10975617	    -29.70577813	     -4.95932934	     -9.54318059	      0.00000000	      0.00000000	      0.00000000	      0.00000000	      0.00000000	      0.00000000	      0.00000000	      0.00000000	      0.00000000	     -0.00042092	      0.00000000	      0.00000000	      0.00000000	      0.00000000	      0.00000000	      0.00000000	      0.00000000	      0.00000000	      0.00000000	      0.00000000	      0.00000000	      0.00000000	      0.00000000	      0.00000000	      0.00000000	      0.00000000	      0.00000000	      0.00000000	      0.00000000	      0.00000000	      0.00000000
      2.44500000	     12.80534419	      8.08095179	      6.55370914	      0.63093393	      0.76145427	      0.89929017	     15.83669441	    -14.07567645	     -2.46924365	    -51.61269353	     -5.00000000	      5.00000000	      0.09124913	     -5.00000000	      1.76895438	     -0.12055925	     25.84809984	     -1.63528338	      2.00000000	    -15.45089531	     14.65293338	      7.18847810	    -10.18481010	      4.35661117	      3.32397346	      9.39824570	     -5.00000000	      5.00000000	     -4.04673985	     20.20922625	      1.64849234	     -0.00617993	    -30.00156845	     -4.52297549	    -10.21507859	      0.00000000	      0.00000000	      0.00000000	      0.00000000	      0.00000000	      0.00000000	      0.00000000	      0.00000000	      0.00000000	     -0.00042092	      0.00000000	      0.00000000	      0.00000000	      0.00000000	      0.00000000	      0.00000000	      0.00000000	      0.00000000	      0.00000000	      0.00000000	      0.00000000	      0.00000000	      0.00000000	      0.00000000	      0.00000000	      0.00000000	      0.00000000	      0.00000000	      0.00000000	      0.00000000	      0.00000000
      2.45000000	     12.68801025	      8.21764155	      6.73290454	      0.63632145	      0.76082731	      0.89897545	     16.35202601	    -14.22948147	     -2.30514830	    -50.09243111	     -5.00000000	      5.00000000	      0.14795208	     -5.00000000	      1.77525324	     -0.21198906	     25.84727330	     -1.63354310	      1.99924295	    -15.89921711	     14.71130523	      7.27229254	    -10.06536871	      4.30126442	      3.33154784	      9.57121812	     -5.00000000	      5.00000000	     -4.04071716	     20.18855637	      1.64002757	      0.00479504	    -30.09441563	     -4.58470902	    -10.28906496	      0.00000000	      0.00000000	      0.00000000	      0.00000000	      0.00000000	      0.00000000	      0.00000000	      0.00000000	      0.00000000	     -0.00042092	      0.00000000	      0.00000000	      0.00000000	      0.00000000	      0.00000000	      0.00000000	      0.00000000	      0.00000000	      0.00000000	      0.00000000	      0.00000000	      0.00000000	      0.00000000	      0.00000000	      0.00000000	      0.00000000	      0.00000000	      0.00000000	      0.00000000	      0.00000000	      0.00000000
      2.45500000	     12.55245609	      8.36456217	      6.93890923	      0.64182670	      0.76011272	      0.89867811	     16.80973047	    -14.39756598	     -2.17708209	    -48.47904241	     -5.00000000	      5.00000000	      0.22956080	     -5.00000000	      1.77817084	     -0.37002685	     25.84446727	     -1.63499501	      1.99834876	    -16.38099428	     14.75845036	      7.37003257	     -9.88421735	      4.21435942	      3.34621003	      9.81615652	     -5.00000000	      5.00000000	     -4.04000679	     20.17056058	      1.63160007	      0.01457534	    -30.14780391	     -4.64520140	    -10.42256175	      0.00000000	      0.00000000	      0.00000000	      0.00000000	      0.00000000	      0.00000000	      0.00000000	      0.00000000	      0.00000000	     -0.00042092	      0.00000000	      0.00000000	      0.00000000	      0.00000000	      0.00000000	      0.00000000	      0.00000000	      0.00000000	      0.00000000	      0.00000000	      0.00000000	      0.00000000	      0.00000000	      0.00000000	      0.00000000	      0.00000000	      0.00000000	      0.00000000	      0.00000000	      0.00000000	      0.00000000
      2.46000000	     12.84008358	      8.36381354	      7.55194123	      0.64738818	      0.75994786	      0.89811051	     16.44687829	    -14.46716779	     -2.77520095	    -46.56059196	     -5.00000000	      5.00000000	      0.37920110	     -5.00000000	      1.74823573	     -2.06281351	     25.81879756	     -1.67775546	      1.99688081	    -17.40047123	     14.41590841	      7.70271030	     -9.65890164	      3.83360449	      3.34265952	     10.58974552	     -5.00000000	      5.00000000	     -3.77035240	     19.96445927	      1.54024791	      0.12551505	    -30.65436038	     -4.22442674	    -11.18112555	      0.00000000	      0.00000000	      0.00000000	      0.00000000	      0.00000000	      0.00000000	      0.00000000	      0.00000000	      0.00000000	     -0.00042092	      0.00000000	      0.00000000	      0.00000000	      0.00000000	      0.00000000	      0.00000000	      0.00000000	      0.00000000	      0.00000000	      0.00000000	      0.00000000	      0.00000000	      0.00000000	      0.00000000	      0.00000000	      0.00000000	      0.00000000	      0.00000000	      0.00000000	      0.00000000	      0.00000000
      2.46500000	     12.67671319	      8.55784327	      7.70646270	      0.65286151	      0.75908491	      0.89789614	     16.86256611	    -14.65287504	     -2.53286085	    -44.79466164	     -5.00000000	      5.00000000	      0.42334417	     -5.00000000	      1.76946200	     -2.12724281	     25.81181363	     -1.67481161	      1.99316322	    -17.84863318	     14.50299383	      7.78281856	     -9.48210419	      3.76962533	      3.32425134	     10.74272311	     -5.00000000	      5.00000000	     -3.77400821	     19.94724961	      1.53192623	      0.13493048	    -30.69584598	     -4.38145331	    -11.21209001	      0.00000000	      0.00000000	      0.00000000	      0.00000000	      0.00000000	      0.00000000	      0.00000000	      0.00000000	      0.00000000	     -0.00042092	      0.00000000	      0.00000000	      0.00000000	      0.00000000	      0.00000000	      0.00000000	      0.00000000	      0.00000000	      0.00000000	      0.00000000	      0.00000000	      0.00000000	      0.00000000	      0.00000000	      0.00000000	      0.00000000	      0.00000000	      0.00000000	      0.00000000	      0.00000000	      0.00000000
      2.47000000	     12.55367535	      8.72959501	      7.76682249	      0.65862883	      0.75818170	      0.89774688	     17.17543532	    -14.82250173	     -2.38442015	    -42.93249031	     -5.00000000	      5.00000000	      0.45997493	     -5.00000000	      1.79061635	     -2.39984152	     25.79705530	     -1.67777149	      1.98739634	    -18.48254008	     14.57590120	      7.96922305	     -9.08526102	      3.61439897	      3.31140162	     11.01256426	     -5.00000000	      5.00000000	     -3.75139789	     19.91284412	      1.51428716	      0.15396725	    -30.65960535	     -4.51245656	    -11.40243776	      0.00000000	      0.00000000	      0.00000000	      0.00000000	      0.00000000	      0.00000000	      0.00000000	      0.00000000	      0.00000000	     -0.00042092	      0.00000000	      0.00000000	      0.00000000	      0.00000000	      0.00000000	      0.00000000	      0.00000000	      0.00000000	      0.00000000	      0.00000000	      0.00000000	      0.00000000	      0.00000000	      0.00000000	      0.00000000	      0.00000000	      0.00000000	      0.00000000	      0.00000000	      0.00000000	      0.00000000
